<?xml version="1.0" standalone="no"?>
<!DOCTYPE svg PUBLIC "-//W3C//DTD SVG 20010904//EN"
 "http://www.w3.org/TR/2001/REC-SVG-20010904/DTD/svg10.dtd">
<svg version="1.0" xmlns="http://www.w3.org/2000/svg"
 width="116%" height="116%" viewBox="0 0 1000.000000 1000.000000"
 preserveAspectRatio="xMidYMid meet">

<g transform="translate(0.000000,1000.000000) scale(0.100000,-0.100000)"
fill="#000000" stroke="none">
<path d="M4950 8830 c-387 -36 -727 -276 -894 -630 -195 -415 -108 -915 218
-1243 516 -521 1383 -400 1745 244 148 263 175 622 70 909 -89 242 -253 440
-474 572 -188 113 -438 169 -665 148z"/>
<path d="M3800 6355 c-235 -48 -430 -182 -570 -390 -19 -27 -389 -537 -822
-1132 -434 -596 -803 -1107 -822 -1135 -94 -149 -118 -353 -60 -524 64 -193
229 -350 429 -410 95 -29 258 -25 360 9 44 14 284 83 534 152 249 70 459 129
467 132 12 4 14 -71 14 -486 l0 -491 1700 0 1700 0 2 489 3 489 355 -99 c195
-55 443 -125 550 -156 182 -53 202 -57 300 -57 72 0 124 6 165 18 199 59 367
221 429 412 51 157 31 368 -47 503 -12 20 -382 531 -822 1136 -441 605 -816
1123 -835 1150 -96 143 -222 253 -365 321 -181 85 -70 78 -1410 80 -956 2
-1203 0 -1255 -11z m435 -1040 c429 -140 787 -255 795 -255 12 0 1597 514
1668 541 l22 9 0 -646 c0 -611 -1 -646 -17 -639 -164 63 -363 82 -502 46 -265
-66 -442 -293 -443 -566 -1 -100 14 -169 57 -260 64 -135 210 -262 371 -322
41 -16 74 -30 74 -33 0 -3 -277 -97 -615 -210 l-615 -205 -615 205 c-338 113
-615 207 -615 210 0 3 33 17 74 33 209 78 372 252 416 446 18 75 15 203 -5
281 -38 149 -147 291 -277 364 -175 98 -415 101 -655 9 -11 -4 -13 109 -13
640 l0 646 58 -20 c31 -11 408 -134 837 -274z"/>
<path d="M1620 1628 c-136 -38 -153 -226 -27 -296 30 -16 232 -17 3467 -20
2349 -1 3451 1 3485 8 78 16 135 83 135 157 -1 48 -35 108 -76 134 l-39 24
-3455 2 c-2255 1 -3467 -2 -3490 -9z"/>
</g>
</svg>
